<?xml version="1.0" standalone="no"?>
<!DOCTYPE svg PUBLIC "-//W3C//DTD SVG 20010904//EN"
 "http://www.w3.org/TR/2001/REC-SVG-20010904/DTD/svg10.dtd">
<svg version="1.0" xmlns="http://www.w3.org/2000/svg"
 width="128px" height="128px" viewBox="0 0 1024.000000 1024.000000"
 preserveAspectRatio="xMidYMid meet">

<g transform="translate(0.000000,1024.000000) scale(0.100000,-0.100000)"
fill="#000000" stroke="none">
<path d="M4895 8005 c-85 -30 -109 -103 -80 -241 27 -128 1 -212 -95 -317
-106 -116 -222 -176 -574 -296 -231 -80 -278 -101 -383 -173 -161 -111 -280
-277 -339 -475 -23 -76 -27 -108 -28 -225 -1 -76 -5 -138 -9 -138 -20 0 -167
-77 -245 -130 -283 -190 -457 -419 -518 -686 -28 -120 -24 -309 9 -436 48
-185 168 -369 332 -511 l79 -68 63 -282 c35 -155 88 -392 119 -527 136 -608
178 -777 201 -825 115 -229 451 -394 1013 -499 215 -41 370 -57 595 -63 312
-8 561 14 879 78 399 81 641 184 797 338 127 127 126 122 259 736 45 204 114
519 155 702 l73 331 119 119 c140 141 210 246 259 391 41 119 54 198 54 323 0
359 -197 667 -556 872 l-74 42 0 55 c0 64 -29 194 -59 263 -100 232 -340 430
-644 528 l-94 30 -7 86 c-29 374 -256 681 -640 864 -252 120 -538 178 -661
134z m469 -321 c223 -88 379 -211 496 -390 67 -103 102 -214 107 -344 4 -100
1 -125 -32 -225 -6 -19 2 -22 115 -43 313 -58 550 -204 646 -397 l39 -79 0
-136 c0 -89 4 -142 12 -157 20 -34 79 -75 198 -137 276 -144 408 -308 444
-547 21 -136 -13 -304 -86 -428 -216 -364 -754 -568 -1672 -632 -225 -16 -940
-6 -1166 16 -461 44 -837 124 -1076 229 -429 189 -624 554 -498 929 84 250
356 486 673 583 l89 27 91 -31 c158 -55 208 -63 416 -69 107 -3 211 -1 230 4
l35 9 0 70 0 69 -210 7 c-297 9 -411 40 -494 134 -56 64 -74 126 -69 230 4 71
10 94 42 159 61 124 178 235 325 309 29 15 160 63 290 106 130 43 272 95 316
115 181 83 343 222 405 349 52 106 73 265 44 341 -8 19 175 -26 290 -71z
m-1902 -3548 c53 -19 165 -53 250 -75 l153 -40 7 -38 c8 -44 60 -337 118 -673
23 -129 63 -359 90 -511 28 -153 50 -282 50 -288 0 -15 -186 52 -289 104 -184
92 -201 122 -282 482 -33 147 -84 374 -114 503 -109 476 -135 589 -135 595 0
3 12 -1 28 -9 15 -7 70 -30 124 -50z m3458 51 c0 -2 -34 -161 -75 -352 -42
-192 -105 -487 -140 -656 -36 -169 -71 -325 -79 -347 -36 -101 -111 -175 -242
-238 -70 -34 -244 -97 -250 -91 -2 2 36 237 85 522 49 286 106 627 127 759 21
131 44 240 49 241 6 2 79 22 164 45 85 23 197 59 250 80 94 38 111 43 111 37z
m-2650 -226 c91 -11 209 -22 263 -26 88 -7 98 -9 102 -29 8 -34 55 -635 95
-1191 11 -159 23 -300 25 -313 5 -19 2 -22 -17 -18 -13 3 -75 12 -138 21 -107
15 -300 52 -307 58 -2 3 -33 179 -123 707 -28 162 -71 410 -95 552 -25 141
-45 260 -45 263 0 4 17 5 38 1 20 -3 111 -15 202 -25z m1946 2 c-3 -16 -46
-280 -96 -588 -119 -735 -150 -909 -161 -916 -15 -9 -242 -49 -361 -63 l-108
-13 0 24 c0 61 96 1400 106 1479 l5 41 112 7 c116 7 449 45 456 52 2 2 15 4
28 4 21 0 24 -4 19 -27z m-1082 -43 l312 0 -7 -67 c-5 -38 -20 -243 -34 -458
-14 -214 -32 -484 -40 -600 -8 -115 -17 -258 -21 -317 l-7 -108 -217 0 -217 0
-12 213 c-28 498 -88 1307 -98 1334 -5 13 -2 15 11 10 10 -4 158 -7 330 -7z"/>
<path d="M6008 6263 c6 -2 18 -2 25 0 6 3 1 5 -13 5 -14 0 -19 -2 -12 -5z"/>
<path d="M6115 6233 c48 -25 76 -55 101 -108 13 -27 24 -44 24 -37 0 51 -102
164 -147 162 -4 -1 6 -8 22 -17z"/>
<path d="M5854 6208 c-41 -36 -74 -99 -73 -138 1 -18 3 -15 10 13 13 57 35 92
76 126 21 17 34 31 31 31 -4 0 -24 -15 -44 -32z"/>
<path d="M6243 6030 c0 -25 2 -35 4 -22 2 12 2 32 0 45 -2 12 -4 2 -4 -23z"/>
<path d="M5780 5994 c0 -10 5 -26 10 -34 8 -11 9 -7 4 15 -8 37 -14 45 -14 19z"/>
<path d="M6210 5926 c-16 -33 -40 -62 -68 -81 -87 -60 -233 -39 -303 44 -17
20 -27 27 -21 16 29 -57 119 -104 200 -105 61 0 103 15 150 55 32 27 76 99 70
114 -2 4 -14 -15 -28 -43z"/>
<path d="M6433 5014 c-79 -47 -115 -154 -82 -241 18 -48 70 -93 126 -109 48
-14 58 -14 107 0 84 25 136 93 138 181 1 53 -8 82 -39 123 -55 73 -170 95
-250 46z m165 1 c71 -30 112 -90 112 -166 0 -49 -16 -92 -32 -83 -7 5 -8 3 -3
-5 9 -16 -31 -60 -72 -77 -120 -51 -256 38 -252 164 1 32 2 30 9 -15 9 -63 39
-107 90 -133 44 -22 114 -26 145 -7 19 12 30 57 13 57 -4 0 -8 -7 -8 -15 0 -8
-5 -15 -11 -15 -7 0 -9 10 -7 25 3 13 1 22 -4 19 -5 -3 -15 2 -22 11 -11 15
-12 15 -12 -4 0 -11 3 -18 7 -15 4 2 9 -3 12 -11 4 -10 1 -12 -11 -9 -15 5
-15 4 1 -6 31 -20 20 -36 -25 -35 -40 0 -43 2 -46 28 -3 25 -5 27 -20 15 -15
-12 -16 -11 -3 5 10 13 17 14 26 7 16 -13 30 4 21 26 -3 8 -2 13 3 10 4 -3 17
4 27 16 11 12 13 18 5 13 -8 -4 -17 -2 -22 6 -13 20 -11 31 4 22 18 -11 37
-12 37 -2 0 5 -10 9 -22 9 l-21 0 22 24 c15 16 19 26 12 31 -7 3 -10 1 -9 -5
2 -7 -8 -14 -22 -16 -24 -4 -24 -3 -6 11 11 8 14 15 7 15 -7 0 -9 5 -5 11 4 8
0 9 -15 4 -15 -4 -21 -2 -21 9 0 8 5 18 11 21 6 4 8 13 5 20 -6 17 19 39 34
30 5 -3 10 -13 10 -21 0 -16 16 -19 25 -4 3 6 1 10 -4 10 -6 0 -11 4 -11 9 0
15 61 -6 76 -26 12 -16 13 -16 14 -2 0 32 -90 55 -151 38 -41 -11 -42 -12 -21
-22 12 -5 22 -14 22 -19 0 -5 -4 -7 -9 -4 -11 7 -23 -22 -15 -35 13 -21 -15
-7 -29 15 -12 17 -13 26 -4 35 6 6 8 11 4 11 -12 0 -49 -44 -63 -75 -7 -16
-13 -23 -14 -15 0 30 52 92 93 111 51 23 96 24 145 4z m-123 -155 c4 0 3 10 0
23 -7 21 -6 21 8 3 9 -13 20 -17 32 -12 15 5 16 4 5 -9 -7 -8 -17 -12 -22 -9
-5 4 -2 -8 6 -25 16 -29 15 -31 -2 -31 -10 0 -27 7 -38 16 -18 15 -18 15 4 9
12 -4 22 -2 22 3 0 5 -10 12 -23 14 -17 3 -23 0 -24 -14 -1 -9 3 -20 8 -24 6
-3 2 -12 -10 -21 -12 -8 -18 -19 -15 -25 4 -7 2 -8 -4 -4 -8 5 -9 13 -2 25 6
12 5 22 -3 31 -9 10 -9 11 1 6 6 -4 13 -2 13 3 1 6 2 14 4 19 19 69 18 67 26
44 5 -12 11 -22 14 -22z m-15 -90 c0 -5 -5 -10 -11 -10 -5 0 -7 5 -4 10 3 6 8
10 11 10 2 0 4 -4 4 -10z"/>
<path d="M6435 4960 c3 -5 11 -10 16 -10 6 0 7 5 4 10 -3 6 -11 10 -16 10 -6
0 -7 -4 -4 -10z"/>
<path d="M6575 4949 c-4 -6 -5 -12 -2 -15 2 -3 7 2 10 11 7 17 1 20 -8 4z"/>
<path d="M6540 4930 c-13 -8 -12 -10 3 -10 9 0 17 5 17 10 0 12 -1 12 -20 0z"/>
<path d="M6626 4925 c-3 -9 -12 -12 -23 -8 -13 4 -15 3 -7 -6 13 -14 44 -4 44
15 0 18 -6 18 -14 -1z"/>
<path d="M6667 4933 c-4 -3 -2 -13 5 -20 9 -11 9 -17 -3 -24 -10 -6 -11 -9 -1
-9 17 0 29 33 14 38 -7 2 -10 8 -6 13 6 10 0 12 -9 2z"/>
<path d="M6620 4890 c0 -5 5 -10 10 -10 6 0 10 5 10 10 0 6 -4 10 -10 10 -5 0
-10 -4 -10 -10z"/>
<path d="M6575 4879 c-4 -6 -4 -13 -1 -16 3 -4 6 -1 6 5 0 6 8 13 18 15 15 4
15 5 0 6 -9 0 -20 -4 -23 -10z"/>
<path d="M6596 4845 c4 -8 11 -15 16 -15 6 0 5 6 -2 15 -7 8 -14 15 -16 15 -2
0 -1 -7 2 -15z"/>
<path d="M6685 4841 c-3 -5 -1 -12 5 -16 5 -3 10 1 10 9 0 18 -6 21 -15 7z"/>
<path d="M6681 4794 c0 -11 3 -14 6 -6 3 7 2 16 -1 19 -3 4 -6 -2 -5 -13z"/>
<path d="M6613 4785 c0 -8 4 -12 9 -9 5 3 6 10 3 15 -9 13 -12 11 -12 -6z"/>
<path d="M6522 4760 c0 -14 2 -19 5 -12 2 6 2 18 0 25 -3 6 -5 1 -5 -13z"/>
<path d="M6626 4742 c-4 -13 -5 -26 -2 -29 10 -11 18 4 14 29 l-4 23 -8 -23z"/>
<path d="M6505 4720 c3 -5 13 -10 21 -10 8 0 12 5 9 10 -3 6 -13 10 -21 10 -8
0 -12 -4 -9 -10z"/>
</g>
</svg>
